<svg width="72" height="57" viewBox="0 0 72 57" fill="none" xmlns="http://www.w3.org/2000/svg">
<path d="M44 12C44 9.87827 43.1571 7.84344 41.6569 6.34315C40.1566 4.84285 38.1217 4 36 4C33.8783 4 31.8434 4.84285 30.3431 6.34315C28.8429 7.84344 28 9.87827 28 12C28 14.1217 28.8429 16.1566 30.3431 17.6569C31.8434 19.1571 33.8783 20 36 20C38.1217 20 40.1566 19.1571 41.6569 17.6569C43.1571 16.1566 44 14.1217 44 12ZM46 12C46 14.6522 44.9464 17.1957 43.0711 19.0711C41.1957 20.9464 38.6522 22 36 22C34.6868 22 33.3864 21.7413 32.1732 21.2388C30.9599 20.7362 29.8575 19.9997 28.9289 19.0711C27.0536 17.1957 26 14.6522 26 12C26 9.34784 27.0536 6.8043 28.9289 4.92893C30.8043 3.05357 33.3478 2 36 2C37.3132 2 38.6136 2.25866 39.8268 2.7612C41.0401 3.26375 42.1425 4.00035 43.0711 4.92893C43.9997 5.85752 44.7362 6.95991 45.2388 8.17317C45.7413 9.38642 46 10.6868 46 12ZM34 9.5C34 10.3 33.3 11 32.5 11C31.7 11 31 10.3 31 9.5C31 8.7 31.7 8 32.5 8C33.3 8 34 8.7 34 9.5ZM41 9.5C41 10.3 40.3 11 39.5 11C38.7 11 38 10.3 38 9.5C38 8.7 38.7 8 39.5 8C40.3 8 41 8.7 41 9.5ZM36 17.23C34.25 17.23 32.71 16.5 31.81 15.42L33.23 14C33.68 14.72 34.75 15.23 36 15.23C37.25 15.23 38.32 14.72 38.77 14L40.19 15.42C39.29 16.5 37.75 17.23 36 17.23Z" fill="#9868EF"/>
<path d="M17.6047 32.132C17.306 31.7307 16.9374 31.432 16.4987 31.236C16.06 31.0307 15.6027 30.928 15.1267 30.928C14.576 30.928 14.0674 31.04 13.6007 31.264C13.1434 31.488 12.7467 31.7913 12.4107 32.174C12.0747 32.5473 11.8134 32.986 11.6267 33.49C11.44 33.9847 11.3467 34.5027 11.3467 35.044C11.3467 35.6227 11.44 36.164 11.6267 36.668C11.8134 37.1627 12.07 37.5967 12.3967 37.97C12.7327 38.334 13.1294 38.6233 13.5867 38.838C14.0534 39.0527 14.5667 39.16 15.1267 39.16C15.7334 39.16 16.2747 39.0433 16.7507 38.81C17.2267 38.5673 17.642 38.222 17.9967 37.774L18.8787 38.516C18.4307 39.1133 17.8894 39.552 17.2547 39.832C16.6294 40.112 15.92 40.252 15.1267 40.252C14.4174 40.252 13.7547 40.1213 13.1387 39.86C12.5227 39.5987 11.986 39.2393 11.5287 38.782C11.0807 38.3153 10.726 37.7647 10.4647 37.13C10.2127 36.4953 10.0867 35.8 10.0867 35.044C10.0867 34.316 10.208 33.6347 10.4507 33C10.7027 32.3653 11.0527 31.8147 11.5007 31.348C11.9487 30.8813 12.4807 30.5127 13.0967 30.242C13.7127 29.9713 14.3894 29.836 15.1267 29.836C15.7987 29.836 16.4427 29.9573 17.0587 30.2C17.684 30.4427 18.2067 30.8393 18.6267 31.39L17.6047 32.132ZM20.2381 34.288C20.5741 33.9427 20.9708 33.6907 21.4281 33.532C21.8948 33.364 22.3661 33.28 22.8421 33.28C23.8128 33.28 24.5128 33.5087 24.9421 33.966C25.3715 34.4233 25.5861 35.1187 25.5861 36.052V38.866C25.5861 39.0527 25.5955 39.2487 25.6141 39.454C25.6328 39.65 25.6561 39.832 25.6841 40H24.6341C24.5968 39.8507 24.5735 39.6873 24.5641 39.51C24.5641 39.3233 24.5641 39.16 24.5641 39.02H24.5361C24.3215 39.356 24.0321 39.6313 23.6681 39.846C23.3135 40.0607 22.8841 40.168 22.3801 40.168C22.0441 40.168 21.7268 40.126 21.4281 40.042C21.1388 39.958 20.8821 39.8367 20.6581 39.678C20.4435 39.51 20.2708 39.3047 20.1401 39.062C20.0095 38.8193 19.9441 38.5393 19.9441 38.222C19.9441 37.6807 20.0841 37.256 20.3641 36.948C20.6441 36.64 20.9895 36.4113 21.4001 36.262C21.8201 36.1127 22.2681 36.0193 22.7441 35.982C23.2295 35.9447 23.6728 35.926 24.0741 35.926H24.4941V35.73C24.4941 35.254 24.3495 34.8947 24.0601 34.652C23.7801 34.4093 23.3835 34.288 22.8701 34.288C22.5155 34.288 22.1655 34.3487 21.8201 34.47C21.4841 34.582 21.1855 34.7593 20.9241 35.002L20.2381 34.288ZM23.4021 36.85C22.7021 36.85 22.1468 36.948 21.7361 37.144C21.3255 37.34 21.1201 37.662 21.1201 38.11C21.1201 38.5207 21.2555 38.8147 21.5261 38.992C21.8061 39.16 22.1515 39.244 22.5621 39.244C22.8795 39.244 23.1548 39.1927 23.3881 39.09C23.6308 38.978 23.8315 38.8333 23.9901 38.656C24.1488 38.4787 24.2701 38.2733 24.3541 38.04C24.4381 37.7973 24.4848 37.5407 24.4941 37.27V36.85H23.4021ZM27.5819 35.002C27.5819 34.7033 27.5726 34.4233 27.5539 34.162C27.5352 33.9007 27.5259 33.6627 27.5259 33.448H28.5619C28.5619 33.6253 28.5666 33.8027 28.5759 33.98C28.5852 34.1573 28.5899 34.3393 28.5899 34.526H28.6179C28.6926 34.3673 28.7952 34.2133 28.9259 34.064C29.0659 33.9147 29.2292 33.784 29.4159 33.672C29.6026 33.5507 29.8126 33.4573 30.0459 33.392C30.2792 33.3173 30.5312 33.28 30.8019 33.28C31.1566 33.28 31.4506 33.3267 31.6839 33.42C31.9266 33.504 32.1272 33.6113 32.2859 33.742C32.4446 33.8633 32.5659 33.9987 32.6499 34.148C32.7432 34.288 32.8179 34.414 32.8739 34.526C33.1166 34.134 33.3966 33.8307 33.7139 33.616C34.0312 33.392 34.4419 33.28 34.9459 33.28C35.4126 33.28 35.8046 33.3453 36.1219 33.476C36.4392 33.5973 36.6959 33.7793 36.8919 34.022C37.0879 34.2553 37.2279 34.5447 37.3119 34.89C37.3959 35.226 37.4379 35.604 37.4379 36.024V40H36.3459V36.08C36.3459 35.856 36.3226 35.6367 36.2759 35.422C36.2292 35.2073 36.1452 35.016 36.0239 34.848C35.9026 34.68 35.7392 34.5447 35.5339 34.442C35.3286 34.3393 35.0672 34.288 34.7499 34.288C34.5166 34.288 34.2972 34.3347 34.0919 34.428C33.8866 34.5213 33.7046 34.652 33.5459 34.82C33.3966 34.988 33.2752 35.1933 33.1819 35.436C33.0979 35.6693 33.0559 35.9307 33.0559 36.22V40H31.9639V36.29C31.9639 35.562 31.8659 35.0487 31.6699 34.75C31.4739 34.442 31.1519 34.288 30.7039 34.288C30.3492 34.288 30.0412 34.3487 29.7799 34.47C29.5279 34.5913 29.3179 34.764 29.1499 34.988C28.9912 35.212 28.8699 35.478 28.7859 35.786C28.7112 36.094 28.6739 36.4347 28.6739 36.808V40H27.5819V35.002ZM39.4478 29.416H40.5398V34.4H40.5678C40.8664 34.0453 41.2118 33.77 41.6038 33.574C42.0051 33.378 42.4438 33.28 42.9198 33.28C43.4331 33.28 43.8998 33.3687 44.3198 33.546C44.7491 33.714 45.1131 33.952 45.4118 34.26C45.7104 34.568 45.9438 34.932 46.1118 35.352C46.2798 35.772 46.3638 36.2293 46.3638 36.724C46.3638 37.2187 46.2798 37.676 46.1118 38.096C45.9438 38.516 45.7104 38.88 45.4118 39.188C45.1224 39.496 44.7771 39.7387 44.3758 39.916C43.9744 40.084 43.5451 40.168 43.0878 40.168C42.4998 40.168 41.9818 40.042 41.5338 39.79C41.0951 39.5287 40.7731 39.2113 40.5678 38.838H40.5398V40H39.4478V29.416ZM40.5398 36.724C40.5398 37.0693 40.5911 37.3913 40.6938 37.69C40.8058 37.9793 40.9644 38.236 41.1698 38.46C41.3751 38.6747 41.6178 38.8473 41.8978 38.978C42.1871 39.0993 42.5091 39.16 42.8638 39.16C43.2184 39.16 43.5358 39.0993 43.8158 38.978C44.1051 38.8473 44.3524 38.6747 44.5578 38.46C44.7631 38.236 44.9171 37.9793 45.0198 37.69C45.1318 37.3913 45.1878 37.0693 45.1878 36.724C45.1878 36.3787 45.1318 36.0613 45.0198 35.772C44.9171 35.4733 44.7631 35.2167 44.5578 35.002C44.3524 34.778 44.1051 34.6053 43.8158 34.484C43.5358 34.3533 43.2184 34.288 42.8638 34.288C42.5091 34.288 42.1871 34.3533 41.8978 34.484C41.6178 34.6053 41.3751 34.778 41.1698 35.002C40.9644 35.2167 40.8058 35.4733 40.6938 35.772C40.5911 36.0613 40.5398 36.3787 40.5398 36.724ZM48.1604 33.448H49.2524V40H48.1604V33.448ZM47.9084 30.886C47.9084 30.6713 47.983 30.4847 48.1324 30.326C48.291 30.1673 48.4824 30.088 48.7064 30.088C48.9304 30.088 49.117 30.1673 49.2664 30.326C49.425 30.4847 49.5044 30.6713 49.5044 30.886C49.5044 31.1193 49.4297 31.3107 49.2804 31.46C49.131 31.6093 48.9397 31.684 48.7064 31.684C48.473 31.684 48.2817 31.6093 48.1324 31.46C47.983 31.3107 47.9084 31.1193 47.9084 30.886ZM51.3416 34.288C51.6776 33.9427 52.0743 33.6907 52.5316 33.532C52.9983 33.364 53.4696 33.28 53.9456 33.28C54.9163 33.28 55.6163 33.5087 56.0456 33.966C56.475 34.4233 56.6896 35.1187 56.6896 36.052V38.866C56.6896 39.0527 56.699 39.2487 56.7176 39.454C56.7363 39.65 56.7596 39.832 56.7876 40H55.7376C55.7003 39.8507 55.677 39.6873 55.6676 39.51C55.6676 39.3233 55.6676 39.16 55.6676 39.02H55.6396C55.425 39.356 55.1356 39.6313 54.7716 39.846C54.417 40.0607 53.9876 40.168 53.4836 40.168C53.1476 40.168 52.8303 40.126 52.5316 40.042C52.2423 39.958 51.9856 39.8367 51.7616 39.678C51.547 39.51 51.3743 39.3047 51.2436 39.062C51.113 38.8193 51.0476 38.5393 51.0476 38.222C51.0476 37.6807 51.1876 37.256 51.4676 36.948C51.7476 36.64 52.093 36.4113 52.5036 36.262C52.9236 36.1127 53.3716 36.0193 53.8476 35.982C54.333 35.9447 54.7763 35.926 55.1776 35.926H55.5976V35.73C55.5976 35.254 55.453 34.8947 55.1636 34.652C54.8836 34.4093 54.487 34.288 53.9736 34.288C53.619 34.288 53.269 34.3487 52.9236 34.47C52.5876 34.582 52.289 34.7593 52.0276 35.002L51.3416 34.288ZM54.5056 36.85C53.8056 36.85 53.2503 36.948 52.8396 37.144C52.429 37.34 52.2236 37.662 52.2236 38.11C52.2236 38.5207 52.359 38.8147 52.6296 38.992C52.9096 39.16 53.255 39.244 53.6656 39.244C53.983 39.244 54.2583 39.1927 54.4916 39.09C54.7343 38.978 54.935 38.8333 55.0936 38.656C55.2523 38.4787 55.3736 38.2733 55.4576 38.04C55.5416 37.7973 55.5883 37.5407 55.5976 37.27V36.85H54.5056ZM58.6854 35.002C58.6854 34.7033 58.6761 34.4233 58.6574 34.162C58.6387 33.9007 58.6294 33.6627 58.6294 33.448H59.6654C59.6654 33.6253 59.6701 33.8027 59.6794 33.98C59.6887 34.1573 59.6934 34.3393 59.6934 34.526H59.7214C59.7961 34.3673 59.8987 34.2133 60.0294 34.064C60.1694 33.9147 60.3327 33.784 60.5194 33.672C60.7061 33.5507 60.9161 33.4573 61.1494 33.392C61.3827 33.3173 61.6347 33.28 61.9054 33.28C61.9801 33.28 62.0547 33.2847 62.1294 33.294C62.2041 33.3033 62.2787 33.322 62.3534 33.35L62.2834 34.456C62.0967 34.4 61.9007 34.372 61.6954 34.372C61.0234 34.372 60.5334 34.5913 60.2254 35.03C59.9267 35.4593 59.7774 36.052 59.7774 36.808V40H58.6854V35.002ZM24.6146 50.372H23.1866V49.448H24.6146V47.978C24.6146 47.5767 24.6519 47.2127 24.7266 46.886C24.8012 46.55 24.9272 46.2607 25.1046 46.018C25.2912 45.7753 25.5339 45.5887 25.8326 45.458C26.1312 45.318 26.4999 45.248 26.9386 45.248C27.0786 45.248 27.2279 45.262 27.3866 45.29C27.5452 45.318 27.6759 45.36 27.7786 45.416L27.6246 46.396C27.3632 46.3027 27.1159 46.256 26.8826 46.256C26.6026 46.256 26.3832 46.3073 26.2246 46.41C26.0659 46.5033 25.9446 46.6387 25.8606 46.816C25.7859 46.984 25.7392 47.1893 25.7206 47.432C25.7112 47.6747 25.7066 47.936 25.7066 48.216V49.448H27.3026V50.372H25.7066V56H24.6146V50.372ZM28.0926 52.724C28.0926 52.2107 28.1812 51.744 28.3586 51.324C28.5359 50.904 28.7786 50.5447 29.0866 50.246C29.3946 49.938 29.7632 49.7 30.1926 49.532C30.6219 49.364 31.0886 49.28 31.5926 49.28C32.0966 49.28 32.5632 49.364 32.9926 49.532C33.4219 49.7 33.7906 49.938 34.0986 50.246C34.4066 50.5447 34.6492 50.904 34.8266 51.324C35.0039 51.744 35.0926 52.2107 35.0926 52.724C35.0926 53.2373 35.0039 53.704 34.8266 54.124C34.6492 54.544 34.4066 54.908 34.0986 55.216C33.7906 55.5147 33.4219 55.748 32.9926 55.916C32.5632 56.084 32.0966 56.168 31.5926 56.168C31.0886 56.168 30.6219 56.084 30.1926 55.916C29.7632 55.748 29.3946 55.5147 29.0866 55.216C28.7786 54.908 28.5359 54.544 28.3586 54.124C28.1812 53.704 28.0926 53.2373 28.0926 52.724ZM29.2686 52.724C29.2686 53.0693 29.3199 53.3913 29.4226 53.69C29.5346 53.9793 29.6932 54.236 29.8986 54.46C30.1039 54.6747 30.3466 54.8473 30.6266 54.978C30.9159 55.0993 31.2379 55.16 31.5926 55.16C31.9472 55.16 32.2646 55.0993 32.5446 54.978C32.8339 54.8473 33.0812 54.6747 33.2866 54.46C33.4919 54.236 33.6459 53.9793 33.7486 53.69C33.8606 53.3913 33.9166 53.0693 33.9166 52.724C33.9166 52.3787 33.8606 52.0613 33.7486 51.772C33.6459 51.4733 33.4919 51.2167 33.2866 51.002C33.0812 50.778 32.8339 50.6053 32.5446 50.484C32.2646 50.3533 31.9472 50.288 31.5926 50.288C31.2379 50.288 30.9159 50.3533 30.6266 50.484C30.3466 50.6053 30.1039 50.778 29.8986 51.002C29.6932 51.2167 29.5346 51.4733 29.4226 51.772C29.3199 52.0613 29.2686 52.3787 29.2686 52.724ZM40.3671 50.372H38.4351V53.648C38.4351 53.8627 38.4397 54.0633 38.4491 54.25C38.4584 54.4273 38.4957 54.586 38.5611 54.726C38.6264 54.8567 38.7244 54.964 38.8551 55.048C38.9857 55.1227 39.1724 55.16 39.4151 55.16C39.5737 55.16 39.7371 55.1413 39.9051 55.104C40.0731 55.0667 40.2317 55.0107 40.3811 54.936L40.4231 55.93C40.2364 56.014 40.0264 56.0747 39.7931 56.112C39.5691 56.1493 39.3544 56.168 39.1491 56.168C38.7571 56.168 38.4444 56.1167 38.2111 56.014C37.9777 55.9113 37.7957 55.7667 37.6651 55.58C37.5344 55.3933 37.4457 55.1647 37.3991 54.894C37.3617 54.614 37.3431 54.306 37.3431 53.97V50.372H35.9151V49.448H37.3431V47.586H38.4351V49.448H40.3671V50.372ZM41.3269 52.724C41.3269 52.2107 41.4156 51.744 41.5929 51.324C41.7703 50.904 42.0129 50.5447 42.3209 50.246C42.6289 49.938 42.9976 49.7 43.4269 49.532C43.8563 49.364 44.3229 49.28 44.8269 49.28C45.3309 49.28 45.7976 49.364 46.2269 49.532C46.6563 49.7 47.0249 49.938 47.3329 50.246C47.6409 50.5447 47.8836 50.904 48.0609 51.324C48.2383 51.744 48.3269 52.2107 48.3269 52.724C48.3269 53.2373 48.2383 53.704 48.0609 54.124C47.8836 54.544 47.6409 54.908 47.3329 55.216C47.0249 55.5147 46.6563 55.748 46.2269 55.916C45.7976 56.084 45.3309 56.168 44.8269 56.168C44.3229 56.168 43.8563 56.084 43.4269 55.916C42.9976 55.748 42.6289 55.5147 42.3209 55.216C42.0129 54.908 41.7703 54.544 41.5929 54.124C41.4156 53.704 41.3269 53.2373 41.3269 52.724ZM42.5029 52.724C42.5029 53.0693 42.5543 53.3913 42.6569 53.69C42.7689 53.9793 42.9276 54.236 43.1329 54.46C43.3383 54.6747 43.5809 54.8473 43.8609 54.978C44.1503 55.0993 44.4723 55.16 44.8269 55.16C45.1816 55.16 45.4989 55.0993 45.7789 54.978C46.0683 54.8473 46.3156 54.6747 46.5209 54.46C46.7263 54.236 46.8803 53.9793 46.9829 53.69C47.0949 53.3913 47.1509 53.0693 47.1509 52.724C47.1509 52.3787 47.0949 52.0613 46.9829 51.772C46.8803 51.4733 46.7263 51.2167 46.5209 51.002C46.3156 50.778 46.0683 50.6053 45.7789 50.484C45.4989 50.3533 45.1816 50.288 44.8269 50.288C44.4723 50.288 44.1503 50.3533 43.8609 50.484C43.5809 50.6053 43.3383 50.778 43.1329 51.002C42.9276 51.2167 42.7689 51.4733 42.6569 51.772C42.5543 52.0613 42.5029 52.3787 42.5029 52.724Z" fill="#9868EF"/>
</svg>
